<?xml version="1.0" encoding="utf-8"?>
<!-- Generator: Adobe Illustrator 22.0.1, SVG Export Plug-In . SVG Version: 6.00 Build 0)  -->
<svg version="1.1" id="Layer_1" xmlns="http://www.w3.org/2000/svg" xmlns:xlink="http://www.w3.org/1999/xlink" x="0px" y="0px"
	 viewBox="0 0 332.7 89.7" style="enable-background:new 0 0 332.7 89.7;" xml:space="preserve">
<style type="text/css">
	.st0{fill:#00AEEF;}
</style>
<g>
	<path class="st0" d="M332.5,44c-0.4,0-0.7-0.1-1.1-0.1h-2.1c-2.6,0-5.7-0.8-6.7-1.8c-1.1-1-2.2-1.3-2.6-0.7s-1.5,0-2.6-1.4
		l-0.4-0.5c-1.1-1.4-2.3-1.6-2.8-0.4s-1.5,0.9-2.2-0.6l-0.4-0.8c-0.7-1.5-1.8-1.6-2.3-0.3c-0.5,1.3-1.2,1.1-1.6-0.4l-1.3-6
		c-0.3-1.5-1.2-1.6-1.9-0.1l-1.1,2.2c-0.7,1.5-1.7,2.2-2.2,1.6s-1.2-0.3-1.5,0.7c-0.4,1-1,0.6-1.5-0.9l-0.8-2.8
		c-0.5-1.5-1.4-1.7-2.2-0.5c-0.7,1.3-1.5,1-1.7-0.5l-0.7-5.1c-0.2-1.5-0.7-1.5-1.1,0l-1.2,5c-0.4,1.5-0.9,1.5-1.1,0l-2.7-15.9
		c-0.3-1.5-0.7-1.5-0.9,0l-1.9,13.4c-0.2,1.5-0.7,1.5-1.1,0l-0.9-3.4c-0.4-1.5-1.2-1.5-1.7,0v0.1c-0.6,1.5-1.2,1.5-1.3-0.1l-0.9-8
		c-0.2-1.5-0.7-1.6-1.2,0c-0.5,1.5-1.1,1.5-1.4,0l-1.1-6c-0.3-1.5-0.7-1.5-0.9,0l-1.8,12.4c-0.2,1.5-0.6,1.5-0.8,0L268,4.5
		c-0.2-1.5-0.7-1.5-1,0l-1.7,8.5c-0.3,1.5-0.9,1.5-1.4,0l-0.8-2.7c-0.5-1.5-1.1-1.5-1.3,0l-1.3,7.4c-0.3,1.5-0.5,1.5-0.6,0
		l-0.4-16.6c0-1.5-0.3-1.5-0.5,0l-2.2,15.3c-0.2,1.5-0.6,1.5-0.9,0l-1-5.6c-0.3-1.5-0.6-1.5-0.7,0l-0.8,12.8c-0.1,1.5-0.2,1.5-0.3,0
		l-0.6-17.4c-0.1-1.5-0.2-1.5-0.4,0l-0.7,5.9c-0.2,1.5-0.5,2.2-0.7,1.5s-0.5,0-0.8,1.5l-0.6,4.6c-0.2,1.5-0.5,1.5-0.7,0l-0.3-2.4
		c-0.2-1.5-0.7-1.8-1.1-0.6c-0.4,1.2-1,1-1.3-0.5l-1-5.5c-0.3-1.5-0.6-1.5-0.6,0l-0.6,18.5c0,1.5-0.3,1.6-0.6,0l-1.2-6.2
		c-0.3-1.5-0.8-1.8-1.2-0.6c-0.4,1.2-0.9,0.9-1.2-0.6l-0.4-2.1c-0.3-1.5-0.7-1.5-0.9,0c0,0-1.4,12.9-1.4,13.9s-1.5-6.4-1.5-6.4
		c-0.3-1.5-0.8-1.5-1.1,0l-0.8,4.2c-0.3,1.5-0.8,2-1.2,1c-0.4-1-1.2-0.6-1.8,0.9l-1.3,3.2c-0.6,1.5-1.1,1.5-1.1-0.1l-0.5-22
		c0-1.5-0.3-1.6-0.6,0L224,29.3c-0.3,1.5-0.9,1.5-1.3,0l-0.9-3.3c-0.4-1.5-1.1-1.5-1.4,0l-1.1,5c-0.3,1.5-0.7,1.5-0.8,0L217,8.2
		c-0.1-1.5-0.4-1.6-0.7,0l-3.7,19.4c-0.3,1.5-0.7,1.5-1,0l-0.6-3.5c-0.3-1.5-0.7-1.5-0.9,0l-1.4,9.1c-0.2,1.5-0.5,1.5-0.6,0
		l-0.2-2.9c-0.1-1.5-0.4-1.5-0.6,0l-1.5,10.6c-0.2,1.5-0.5,1.5-0.6,0l-2.4-26.6c-0.1-1.5-0.3-1.5-0.4,0l-0.6,10.9
		c-0.1,1.5-0.5,1.6-0.9,0l-0.5-1.9c-0.4-1.5-0.9-1.5-1.1,0L197.4,36c-0.2,1.5-0.4,1.5-0.5,0l-1.1-27c-0.1-1.5-0.2-1.5-0.4,0
		L193,34.5c-0.1,1.5-0.3,1.5-0.4,0l-0.5-9.4c-0.1-1.5-0.3-1.5-0.4,0l-1,11.1c-0.1,1.5-0.4,1.5-0.5,0l-1.9-24.3
		c-0.1-1.5-0.7-1.6-1.3-0.1l-0.9,2.4c-0.6,1.5-1.2,1.5-1.4-0.1l-1.2-9.7c-0.2-1.5-0.4-1.5-0.5,0l-1.6,27.1c-0.1,1.5-0.5,1.6-0.8,0
		l-2.1-8.9c-0.4-1.5-0.8-1.5-1,0l-1.1,9.9c-0.2,1.5-0.7,1.8-1.2,0.5c-0.5-1.3-0.9-1-1,0.5l-0.2,5.1c-0.1,1.5-0.9,2.8-1.9,2.8
		s-2.2-1.1-2.6-2.5c-0.4-1.4-1.2-1.7-1.6-0.7c-0.5,1-1.4,0.6-2-0.9l-1.6-3.9c-0.6-1.5-1.6-2.2-2.1-1.7c-0.5,0.6-1.1-0.1-1.3-1.5
		s-1-1.6-1.7-0.4s-1.3,0.9-1.3-0.7v-0.9c0-1.5-0.6-1.6-1.4-0.1l-0.4,0.7c-0.8,1.5-1.7,1.4-1.9-0.1l-2.8-15.8c-0.3-1.5-0.8-1.5-1.3,0
		l-2.3,8.4c-0.4,1.5-1,1.5-1.3,0l-0.1-0.4c-0.3-1.5-0.8-1.5-1,0l-1.1,6.1c-0.3,1.5-0.9,1.8-1.4,0.5c-0.5-1.2-1.2-1-1.5,0.5l-1.8,7.7
		c-0.4,1.5-0.9,1.5-1.1,0l-3.6-21.4c-0.3-1.5-0.7-1.5-0.9,0l-2.7,16.6c-0.3,1.5-0.6,1.5-0.8,0l-0.2-1.3c-0.2-1.5-0.8-1.6-1.3,0
		l-2.1,6.7c-0.5,1.5-1,1.5-1.1,0l-1.3-17.8c-0.1-1.5-0.4-1.5-0.6,0l-1.8,14.1c-0.2,1.5-0.6,1.5-1,0l-0.3-1.2
		c-0.3-1.5-1.2-1.6-1.9-0.1l-1.3,2.7c-0.7,1.5-1.4,1.4-1.5-0.1l-1.5-17.5c-0.1-1.5-0.5-1.6-0.8,0l-3.3,16.2c-0.3,1.5-0.7,1.5-0.8,0
		l-0.3-3.8c-0.1-1.5-0.8-1.6-1.5-0.1l-1,2.2c-0.7,1.5-1.4,1.5-1.7-0.1l-1.6-10.5c-0.2-1.5-0.6-1.5-0.9,0l-2.5,14.5
		c-0.3,1.5-0.9,1.6-1.4,0L97,29.6c-0.5-1.5-1.3-1.8-1.8-0.7c-0.5,1.1-1.4,0.8-2.1-0.7l-0.2-0.4c-0.7-1.5-1.8-1.5-2.5,0l-1.8,3.8
		c-0.7,1.5-1.8,1.5-2.4,0l-4.3-10.3c-0.6-1.5-1.4-1.5-1.7,0.1l-2.5,11.7c-0.3,1.5-1,2-1.4,1c-0.5-1-1.3-0.6-1.8,1l-0.1,0.2
		c-0.5,1.5-0.9,1.5-0.9-0.1v-9.1c0-1.5-0.3-1.6-0.7,0l-2.7,11.4c-0.4,1.5-1,2.3-1.5,1.7s-1.5-0.3-2.2,0.7s-2.1,1-3.1,0
		c-0.9-1-2.2-1.2-2.9-0.5c-0.6,0.7-1.8,0.6-2.7-0.3c-0.8-0.9-2.2-1-3.1-0.3c-0.8,0.7-2.2,0.2-3.1-1.2c-0.8-1.4-2-1.8-2.5-0.8
		c-0.5,0.9-0.9,0.6-0.8-0.6c0.1-1.3-0.4-1.6-1.1-0.8c-0.7,0.8-1.5,0.3-1.7-1.2s-1-1.8-1.7-0.7s-1.5,0.8-1.7-0.7L41.8,30
		c-0.2-1.5-1.1-1.6-1.9-0.2l-2.1,3.5c-0.9,1.5-1.8,1.4-2-0.2L34,20.7c-0.2-1.5-0.7-1.5-1,0l-2.6,11.8c-0.3,1.5-1.2,1.7-1.9,0.4
		c-0.7-1.3-1.8-1.1-2.4,0.4l-0.2,0.5c-0.6,1.5-1.4,1.5-1.7-0.1c0,0-2.5-11.8-2.9-12.3C21,21,17.2,36.8,17.2,36.8
		c-0.4,1.5-1.2,1.6-1.8,0.1l-0.6-1.5c-0.6-1.5-1.6-1.5-2.1,0l-1.1,3c-0.5,1.5-1.5,2.1-2,1.3C9,38.9,8.2,39.5,7.9,41l-0.1,0.3
		c-0.4,1.5-2.8,2.8-5.4,2.8h-2c-0.2,0-0.3,0-0.4,0v1.7c0.1,0,0.3,0,0.4,0h1.9c2.6,0,5.1,1.3,5.4,2.8l0.1,0.3C8.2,50.4,9,51,9.5,50.1
		c0.6-0.8,1.5-0.2,2,1.3l1.1,3c0.5,1.5,1.5,1.5,2.1,0l0.6-1.5c0.6-1.5,1.4-1.5,1.8,0.1c0,0,3.7,15.8,4.1,15.3S24.1,56,24.1,56
		c0.3-1.5,1.1-1.6,1.7-0.1l0.2,0.5c0.6,1.5,1.7,1.7,2.4,0.4c0.7-1.3,1.5-1.1,1.9,0.4l2.7,12c0.3,1.5,0.8,1.5,1,0l1.7-12.5
		c0.2-1.5,1.1-1.6,2-0.2l2.1,3.5c0.9,1.5,1.8,1.4,1.9-0.2l0.3-2.6c0.2-1.5,0.9-1.9,1.7-0.7c0.7,1.1,1.5,0.8,1.7-0.7s1-2.1,1.7-1.2
		c0.7,0.8,1.3,0.5,1.1-0.8c-0.1-1.3,0.2-1.5,0.8-0.6c0.5,0.9,1.6,0.5,2.5-0.8c0.8-1.4,2.2-1.9,3.1-1.2c0.8,0.7,2.2,0.6,3.1-0.3
		c0.8-0.9,2.1-1,2.7-0.3c0.6,0.7,1.9,0.5,2.9-0.5c0.9-1,2.3-1,3.1,0c0.7,1,1.7,1.3,2.2,0.7s1.2,0.1,1.5,1.7l2.7,11.4
		c0.4,1.5,0.7,1.5,0.7,0v-9.1c0-1.5,0.4-1.6,0.9-0.1l0.1,0.2c0.5,1.5,1.3,1.9,1.8,1c0.5-1,1.1-0.5,1.4,1l2.5,11.7
		c0.3,1.5,1.1,1.6,1.7,0.1l4.3-10.3c0.6-1.5,1.7-1.5,2.4,0l1.8,3.8c0.7,1.5,1.9,1.5,2.5,0l0.2-0.4c0.7-1.5,1.6-1.8,2.1-0.7
		s1.3,0.8,1.8-0.7l1.9-5.5c0.5-1.5,1.2-1.5,1.4,0l2.5,14.5c0.3,1.5,0.7,1.5,0.9,0l1.6-10.5c0.2-1.5,1-1.6,1.7-0.1l1,2.2
		c0.7,1.5,1.3,1.5,1.5-0.1l0.3-3.8c0.1-1.5,0.5-1.5,0.8,0l3.3,16.2c0.3,1.5,0.7,1.5,0.8,0l1.5-17.5c0.1-1.5,0.8-1.6,1.5-0.1l1.3,2.7
		c0.7,1.5,1.6,1.5,1.9-0.1l0.3-1.2c0.3-1.5,0.8-1.5,1,0l1.8,14.1c0.2,1.5,0.4,1.5,0.6,0l1.3-17.8c0.1-1.5,0.6-1.6,1.1,0l2,6.6
		c0.5,1.5,1,1.5,1.3,0l0.2-1.3c0.2-1.5,0.6-1.5,0.8,0l2.7,16.6c0.3,1.5,0.7,1.5,0.9,0l3.6-21.4c0.3-1.5,0.8-1.5,1.1,0l1.8,7.7
		c0.4,1.5,1,1.8,1.5,0.5c0.5-1.2,1.1-1,1.4,0.5l1.1,6.1c0.3,1.5,0.7,1.5,1,0l0.1-0.4c0.3-1.5,0.9-1.5,1.3,0l2.3,8.4
		c0.4,1.5,1,1.5,1.3,0l2.8-15.8c0.3-1.5,1.1-1.6,1.9-0.1l0.4,0.7c0.8,1.5,1.4,1.4,1.4-0.1v-0.9c0-1.5,0.6-1.8,1.3-0.7
		c0.7,1.2,1.5,1,1.7-0.4s0.8-2.1,1.3-1.5s1.5-0.2,2.1-1.7l1.6-3.9c0.6-1.5,1.5-1.9,2-0.9s1.2,0.7,1.6-0.7c0.4-1.4,1.6-2.5,2.6-2.5
		s1.9,1.3,1.9,2.8l0.2,5.1c0.1,1.5,0.5,1.8,1,0.5c0.5-1.3,1-1,1.2,0.5l1.1,9.9c0.2,1.5,0.6,1.6,1,0l2.1-8.9c0.4-1.5,0.7-1.5,0.8,0
		l1.6,27.1c0.1,1.5,0.3,1.5,0.5,0l1.2-9.7c0.2-1.5,0.8-1.6,1.4-0.1l0.9,2.4c0.6,1.5,1.2,1.5,1.3-0.1l1.9-24.3c0.1-1.5,0.3-1.5,0.5,0
		l1,11.1c0.1,1.5,0.3,1.5,0.4,0l0.5-9.4c0.1-1.5,0.3-1.5,0.4,0l2.4,25.5c0.1,1.5,0.3,1.5,0.4,0l1.1-27c0.1-1.5,0.3-1.5,0.5,0
		l1.6,12.7c0.2,1.5,0.7,1.6,1.1,0l0.5-1.9c0.4-1.5,0.9-1.5,0.9,0l0.6,10.9c0.1,1.5,0.3,1.5,0.4,0l2.4-26.6c0.1-1.5,0.4-1.5,0.6,0
		l1.5,10.6c0.2,1.5,0.5,1.5,0.6,0l0.2-2.9c0.1-1.5,0.4-1.5,0.6,0l1.4,9.1c0.2,1.5,0.6,1.5,0.9,0l0.6-3.5c0.3-1.5,0.7-1.5,1,0
		l3.7,19.4c0.3,1.5,0.6,1.5,0.7,0l1.4-22.8c0.1-1.5,0.4-1.6,0.8,0l1.1,5c0.3,1.5,1,1.5,1.4,0l0.9-3.3c0.4-1.5,1-1.5,1.3,0l2.9,14.9
		c0.3,1.5,0.6,1.5,0.6,0l0.5-22c0-1.5,0.5-1.6,1.1-0.1l1.3,3.2c0.6,1.5,1.4,1.9,1.8,0.9c0.4-1,0.9-0.5,1.2,1l0.8,4.2
		c0.3,1.5,0.8,1.5,1.1,0c0,0,1.5-7.4,1.5-6.4s1.4,13.9,1.4,13.9c0.2,1.5,0.6,1.5,0.9,0l0.4-2.1c0.3-1.5,0.9-1.8,1.2-0.6
		c0.4,1.2,0.9,0.9,1.2-0.6l1.2-6.2c0.3-1.5,0.6-1.5,0.6,0l0.6,18.5c0,1.5,0.3,1.6,0.6,0l1-5.5c0.3-1.5,0.9-1.8,1.3-0.5
		c0.4,1.2,0.9,1,1.1-0.6l0.3-2.4c0.2-1.5,0.5-1.5,0.7,0l0.6,4.6c0.2,1.5,0.5,2.2,0.8,1.5c0.2-0.7,0.5,0,0.7,1.5l0.7,5.9
		c0.2,1.5,0.4,1.5,0.4,0l0.6-17.4c0.1-1.5,0.2-1.5,0.3,0l0.8,12.8c0.1,1.5,0.4,1.5,0.7,0l1-5.6c0.3-1.5,0.7-1.5,0.9,0l2.2,15.3
		c0.2,1.5,0.4,1.5,0.5,0l0.4-16.6c0-1.5,0.3-1.6,0.6,0l1.3,7.4c0.3,1.5,0.9,1.5,1.3,0l0.8-2.7c0.5-1.5,1.1-1.5,1.4,0l1.7,8.5
		c0.3,1.5,0.8,1.5,1,0l2.8-18.7c0.2-1.5,0.6-1.5,0.8,0l1.8,12.4c0.2,1.5,0.6,1.5,0.9,0l1.1-6c0.3-1.5,0.9-1.6,1.4,0
		c0.5,1.5,1,1.5,1.2,0l0.9-8c0.2-1.5,0.8-1.6,1.3-0.1v0.1c0.6,1.5,1.3,1.5,1.7,0l0.9-3.4c0.4-1.5,0.9-1.5,1.1,0L286,75
		c0.2,1.5,0.6,1.5,0.9,0l2.7-15.9c0.3-1.5,0.8-1.5,1.1,0l1.2,5c0.4,1.5,0.8,1.5,1.1,0l0.7-5.1c0.2-1.5,1-1.8,1.7-0.5
		c0.7,1.3,1.7,1.1,2.2-0.5l0.8-2.8c0.5-1.5,1.1-1.9,1.5-0.9s1.1,1.3,1.5,0.7c0.5-0.6,1.4,0.1,2.2,1.6l1.1,2.2
		c0.7,1.5,1.6,1.5,1.9-0.1l1.3-6c0.3-1.5,1-1.7,1.6-0.4c0.5,1.3,1.6,1.1,2.3-0.3l0.4-0.8c0.7-1.5,1.7-1.7,2.2-0.6
		c0.5,1.2,1.7,1,2.8-0.4l0.4-0.5c1.1-1.4,2.2-2.1,2.6-1.4c0.4,0.6,1.5,0.3,2.6-0.7s4.1-1.8,6.7-1.8h2.1c0.4,0,0.7,0,1.1-0.1V44
		H332.5z"/>
</g>
</svg>
